<?xml version="1.0" encoding="UTF-8"?>
<!DOCTYPE svg PUBLIC "-//W3C//DTD SVG 1.1//EN" "http://www.w3.org/Graphics/SVG/1.1/DTD/svg11.dtd">
<!-- Creator: CorelDRAW -->
<svg xmlns="http://www.w3.org/2000/svg" xml:space="preserve" width="62.0973mm" height="20.2037mm" version="1.1" style="shape-rendering:geometricPrecision; text-rendering:geometricPrecision; image-rendering:optimizeQuality; fill-rule:evenodd; clip-rule:evenodd"
viewBox="0 0 2609.23 848.93"
 xmlns:xlink="http://www.w3.org/1999/xlink"
 xmlns:xodm="http://www.corel.com/coreldraw/odm/2003">
 <defs>
  <style type="text/css">
   <![CDATA[
    .fil1 {fill:black}
    .fil2 {fill:#502D6D}
    .fil3 {fill:#613795}
    .fil0 {fill:#F98A22}
    .fil4 {fill:#502D6D;fill-rule:nonzero}
   ]]>
  </style>
 </defs>
 <g id="Layer_x0020_1">
  <metadata id="CorelCorpID_0Corel-Layer"/>
  <g id="_105553212790720">
   <g>
    <path class="fil0" d="M790.76 847.02c-25.15,-72.04 -55.42,-109.91 -117.27,-152.61 -4.45,-3.08 -8.92,-5.7 -11.33,-2.25 -48.57,69.42 -191.24,154.03 -202.93,154l331.54 0.86z"/>
    <path class="fil0" d="M106.01 207.44c0.32,9.8 -0.76,37.01 -13.38,52.24 -8.74,10.55 -18.77,18.48 -24,24.63 -16.11,18.93 38.48,12.12 53.49,5.06 33.78,-15.9 44.72,-35.77 48.03,-45.05 3.31,-9.27 9.67,-28.21 8.11,-38.59 -0.16,-1.03 -2.29,-1.62 -2.82,-2.94 0,0 -14.3,-13.12 -16.4,-21.98 -0.84,-3.54 -5.82,-4.41 -7.84,-1.54 -7.02,9.95 -15.82,26.6 -44.35,24.9 -1.04,-0.06 -0.87,2.36 -0.84,3.26z"/>
    <path class="fil1" d="M106.14 203.22l-0.82 20.37c0,0 5.09,6.44 18.71,-0.92 13.62,-7.36 24.58,-17.06 26.77,-21.13 2.19,-4.07 3.91,-2.81 4.85,-0.47 0.94,2.34 6.26,10.95 11.74,12.05 5.48,1.1 10.78,1.29 10.78,1.29l1.74 -9.9 -21.73 -25.41 -4.5 -0.97 -15.46 17.12 -24.66 9.42 -7.42 -1.45z"/>
    <path class="fil2" d="M204.92 106.43c18.79,-21.46 51.28,-29.67 78.88,-30.47 37.56,-1.09 63.52,13.67 74.91,23.79 15.48,13.77 54.49,60.22 12.62,119.87 -35.72,50.9 -233.88,181.12 -315.87,281.36 -23.97,29.3 -41.2,54.23 -49.16,90.54 -18.73,85.45 0.24,172.48 111.85,235.63 22.34,12.64 48.86,19.88 74.24,19.88 5.75,0 12.35,0 19.63,0 59.69,0 164.91,0 218.92,0 32.27,0 24.06,2.48 53.64,-13.42 65,-34.96 227.53,-137.28 248.83,-296.01 6.55,-48.81 7.38,-75.18 4.26,-90.68 -4.82,-23.93 -17.24,-18.07 -29.22,-4.69 -11.92,13.31 -23.89,31.77 -23.89,31.77l-10.25 15.38c-12.28,18.43 -47.62,45.43 -33.98,3.05 7,-21.77 21.65,-59.25 28.92,-121.65 4.6,-39.43 6.81,-55.15 -43.62,-29.61 -75.01,37.98 -223.79,160.59 -293.21,220.59 -21.69,18.74 -38.53,37.99 -59.62,55.96 -24.84,21.16 -62.75,49.76 -97.21,43.82 -10.82,-1.87 -24.19,-6.96 -34.82,-14.08 -11.47,-7.69 -18.1,-16.32 -21.33,-29.99 -2.31,-9.72 -3.17,-20.34 -1.95,-30.16 10.46,-83.59 165.74,-180.86 246.77,-243.01 21.69,-16.64 41.7,-36.75 59.47,-57.65 25.81,-30.35 55.65,-72.35 51.22,-133.97 -3.97,-55.25 -44.27,-107.07 -98.91,-133.6 -40.53,-19.68 -81.65,-20.74 -115.35,-17.93 -24.1,2.01 -50.25,9.81 -73.5,20.8 -26.69,12.63 -48.7,29.01 -65.28,53.24 -9.79,14.31 -21.03,36.67 -23.85,53.87 -3.03,18.49 -3.47,35.86 -2.37,47.95 0.87,9.54 1.39,22.86 10.13,27.07 2.63,1.26 5.95,1.81 10.35,1.12 3.84,-0.61 7.57,-1.29 10.39,-2.58 11.7,-5.37 19.33,-14.1 27.13,-24.49 6.78,11.13 11.89,14.46 20.26,24.58 5.85,7.08 12.01,1.25 12.52,-9.17 0.75,-15.27 -10.32,-54.22 18.47,-87.11z"/>
    <path class="fil3" d="M455.75 846.18c-2.42,0.97 -6.61,0.01 -11.75,0.02 -54.03,0.13 -234.97,5.48 -245.09,0.83 -132.69,-61.04 58.68,-216.47 88.62,-242.59 0,0 -60.86,93.23 -30.29,142.84 34.32,55.69 111.22,33 166.99,18.08 110.44,-29.53 303.2,-197.1 303.2,-197.1 -21.22,97.26 -139.66,225.13 -271.68,277.92z"/>
   </g>
   <g>
    <path class="fil4" d="M948.15 305.97c-1.69,0 -3.22,-0.63 -4.48,-1.95 -1.32,-1.27 -1.95,-2.8 -1.95,-4.48 0,-1.05 0.21,-2.11 0.58,-3.27l78.27 -204.69c0.79,-2.16 2,-3.9 3.53,-5.17 1.53,-1.32 3.75,-1.95 6.59,-1.95l21.63 0c2.85,0 5.06,0.63 6.59,1.95 1.53,1.26 2.74,3 3.53,5.17l78.27 204.69c0.37,1.16 0.58,2.22 0.58,3.27 0,1.68 -0.63,3.21 -1.9,4.48 -1.32,1.32 -2.8,1.95 -4.54,1.95l-16.14 0c-2.42,0 -4.27,-0.63 -5.48,-1.9 -1.16,-1.32 -2,-2.42 -2.48,-3.43l-17.35 -45.09 -103.8 0 -17.35 45.09c-0.32,1 -1.05,2.11 -2.32,3.43 -1.26,1.26 -3.16,1.9 -5.64,1.9l-16.14 0zm50.69 -77.37l85.39 0 -42.72 -112.34 -42.67 112.34zm179.38 77.37c-2.16,0 -3.9,-0.68 -5.22,-2 -1.37,-1.37 -2,-3.11 -2,-5.27l0 -150c0,-2.16 0.63,-3.9 2,-5.27 1.32,-1.32 3.06,-2 5.22,-2l14.19 0c2.11,0 3.9,0.68 5.22,2 1.37,1.37 2,3.11 2,5.27l0 10.92c4.96,-6.38 11.13,-11.5 18.51,-15.4 7.33,-3.9 16.19,-5.91 26.53,-5.96 23.84,-0.16 40.72,9.49 50.53,29.01 4.85,-8.75 11.92,-15.77 21.2,-21.04 9.28,-5.33 19.78,-7.96 31.54,-7.96 11.13,0 21.15,2.53 30.06,7.65 8.92,5.11 15.98,12.76 21.15,22.94 5.22,10.13 7.8,22.94 7.8,38.45l0 91.4c0,2.16 -0.68,3.9 -2,5.27 -1.37,1.32 -3.11,2 -5.27,2l-14.77 0c-2.16,0 -3.9,-0.68 -5.28,-2 -1.32,-1.37 -2,-3.11 -2,-5.27l0 -88.56c0,-11.92 -1.74,-21.25 -5.17,-27.95 -3.48,-6.7 -8.02,-11.45 -13.66,-14.24 -5.64,-2.74 -11.82,-4.17 -18.51,-4.17 -5.64,0 -11.29,1.42 -16.93,4.17 -5.7,2.79 -10.34,7.54 -14.03,14.24 -3.69,6.7 -5.54,16.03 -5.54,27.95l0 88.56c0,2.16 -0.68,3.9 -2.05,5.27 -1.32,1.32 -3.06,2 -5.22,2l-14.82 0c-2.16,0 -3.9,-0.68 -5.22,-2 -1.37,-1.37 -2,-3.11 -2,-5.27l0 -88.56c0,-11.92 -1.84,-21.25 -5.48,-27.95 -3.59,-6.7 -8.23,-11.45 -13.87,-14.24 -5.69,-2.74 -11.66,-4.17 -17.98,-4.17 -5.64,0 -11.29,1.42 -16.93,4.22 -5.7,2.79 -10.39,7.54 -14.08,14.24 -3.74,6.65 -5.59,15.87 -5.59,27.64l0 88.82c0,2.16 -0.69,3.9 -2,5.27 -1.37,1.32 -3.11,2 -5.28,2l-15.03 0zm281.65 60.13c-2.16,0 -3.9,-0.69 -5.22,-2 -1.37,-1.37 -2.05,-3.11 -2.05,-5.28l0 -210.13c0,-2.16 0.68,-3.9 2.05,-5.27 1.32,-1.32 3.06,-2 5.22,-2l14.45 0c2.16,0 3.9,0.68 5.27,2 1.32,1.37 2,3.11 2,5.27l0 13.82c5.17,-6.96 11.98,-12.77 20.36,-17.35 8.38,-4.59 18.93,-6.91 31.59,-6.91 11.87,0 21.94,2 30.27,6.01 8.34,4.01 15.19,9.49 20.62,16.4 5.38,6.91 9.44,14.82 12.19,23.79 2.74,8.92 4.27,18.41 4.53,28.43 0.21,3.43 0.32,7.07 0.32,10.81 0,3.75 -0.11,7.39 -0.32,10.87 -0.26,9.86 -1.74,19.25 -4.48,28.16 -2.69,8.97 -6.81,16.88 -12.19,23.79 -5.43,6.96 -12.29,12.45 -20.62,16.51 -8.39,4.06 -18.46,6.12 -30.33,6.12 -12.29,0 -22.57,-2.27 -30.85,-6.75 -8.28,-4.48 -15.03,-10.18 -20.2,-17.14l0 73.57c0,2.16 -0.68,3.9 -2.06,5.28 -1.32,1.32 -3.06,2 -5.22,2l-15.35 0zm67.25 -82.49c10.87,0 19.41,-2.37 25.63,-7.12 6.23,-4.74 10.71,-10.97 13.45,-18.67 2.74,-7.7 4.33,-16.03 4.75,-24.95 0.32,-6.12 0.32,-12.24 0,-18.35 -0.42,-8.91 -2,-17.24 -4.75,-24.95 -2.74,-7.75 -7.22,-13.98 -13.45,-18.67 -6.22,-4.74 -14.77,-7.12 -25.63,-7.12 -10.5,0 -18.93,2.48 -25.37,7.38 -6.43,4.91 -11.18,11.08 -14.19,18.51 -3.01,7.49 -4.69,15.08 -5.06,22.79 -0.21,3.48 -0.32,7.54 -0.32,12.24 0,4.64 0.11,8.76 0.32,12.24 0.21,7.49 1.9,14.77 5.11,21.89 3.22,7.12 8.07,13.03 14.61,17.72 6.49,4.69 14.77,7.07 24.9,7.07zm179.43 25.53c-21.78,0 -39.14,-6.7 -51.95,-20.15 -12.87,-13.45 -19.94,-31.75 -21.31,-54.96 -0.21,-2.64 -0.26,-6.17 -0.26,-10.5 0,-4.38 0.05,-7.86 0.26,-10.5 0.89,-15.03 4.38,-28.22 10.44,-39.45 6.01,-11.24 14.35,-19.94 25,-26.11 10.65,-6.17 23.26,-9.23 37.76,-9.23 15.88,0 29.27,3.37 40.14,10.18 10.92,6.8 19.2,16.4 24.95,28.8 5.75,12.34 8.65,26.85 8.65,43.51l0 5.65c0,2.11 -0.74,3.85 -2.16,5.22 -1.42,1.32 -3.22,2 -5.38,2l-109.18 0c0,0.05 0,0.42 0,1.16 0,0.74 0,1.32 0,1.74 0.32,8.49 2.16,16.45 5.59,23.94 3.37,7.49 8.28,13.56 14.61,18.2 6.38,4.64 13.92,6.96 22.73,6.96 7.59,0 13.92,-1.16 18.99,-3.48 5.06,-2.26 9.12,-4.85 12.24,-7.7 3.11,-2.85 5.17,-5.01 6.22,-6.59 1.9,-2.58 3.37,-4.17 4.48,-4.69 1.11,-0.53 2.85,-0.79 5.17,-0.79l15.35 0c1.95,0 3.58,0.63 4.96,1.79 1.37,1.16 1.95,2.74 1.74,4.69 -0.21,3.11 -1.9,7.02 -5.01,11.55 -3.16,4.59 -7.65,9.07 -13.5,13.45 -5.85,4.43 -13.03,8.07 -21.57,10.97 -8.49,2.9 -18.14,4.32 -28.95,4.32zm-43.04 -97.31l86.5 0 0 -1.11c0,-9.44 -1.74,-17.88 -5.17,-25.26 -3.43,-7.44 -8.39,-13.29 -14.92,-17.56 -6.54,-4.27 -14.35,-6.43 -23.42,-6.43 -9.07,0 -16.87,2.16 -23.31,6.43 -6.43,4.27 -11.34,10.13 -14.66,17.56 -3.38,7.38 -5.01,15.82 -5.01,25.26l0 1.11zm162.08 94.15c-2.16,0 -3.9,-0.68 -5.22,-2 -1.37,-1.37 -2,-3.11 -2,-5.27l0 -149.79c0,-2.11 0.63,-3.9 2,-5.33 1.32,-1.42 3.06,-2.16 5.22,-2.16l14.5 0c2.16,0 3.95,0.74 5.38,2.16 1.42,1.42 2.11,3.22 2.11,5.33l0 13.92c4.38,-7.12 10.23,-12.45 17.62,-16.03 7.38,-3.58 16.29,-5.38 26.64,-5.38l12.34 0c2.16,0 3.9,0.68 5.27,2 1.32,1.37 2,3.11 2,5.27l0 12.82c0,2.16 -0.68,3.9 -2,5.27 -1.37,1.32 -3.11,2 -5.27,2l-18.67 0c-11.5,0 -20.51,3.27 -27.11,9.87 -6.59,6.59 -9.92,15.66 -9.92,27.11l0 92.93c0,2.16 -0.68,3.9 -2.11,5.27 -1.48,1.32 -3.22,2 -5.38,2l-15.4 0zm169.83 3.16c-11.76,0 -21.84,-1.47 -30.27,-4.48 -8.39,-2.95 -15.29,-6.54 -20.68,-10.81 -5.33,-4.22 -9.34,-8.44 -11.87,-12.66 -2.58,-4.22 -3.95,-7.59 -4.17,-10.13 -0.21,-2.32 0.53,-4.06 2.16,-5.32 1.69,-1.27 3.32,-1.9 4.9,-1.9l14.19 0c1.05,0 2,0.16 2.79,0.53 0.84,0.32 1.84,1.26 3.11,2.79 2.74,2.95 5.75,5.91 9.07,8.86 3.37,2.95 7.54,5.33 12.5,7.17 5.01,1.79 11.23,2.74 18.67,2.74 10.6,0 19.41,-2.05 26.37,-6.17 7.02,-4.11 10.5,-10.13 10.5,-18.14 0,-5.17 -1.42,-9.33 -4.32,-12.5 -2.85,-3.22 -7.91,-6.07 -15.08,-8.6 -7.23,-2.53 -17.19,-5.17 -29.96,-7.91 -12.61,-2.9 -22.63,-6.54 -30.06,-10.92 -7.38,-4.32 -12.66,-9.55 -15.71,-15.61 -3.11,-6.07 -4.69,-12.87 -4.69,-20.41 0,-7.7 2.32,-15.19 6.85,-22.47 4.59,-7.28 11.4,-13.24 20.41,-17.93 8.97,-4.69 20.25,-7.01 33.81,-7.01 10.82,0 20.15,1.37 27.95,4.16 7.81,2.79 14.29,6.22 19.36,10.23 5.11,4.06 8.91,8.12 11.45,12.19 2.48,4.06 3.85,7.49 4.06,10.18 0.21,2.16 -0.42,3.9 -1.9,5.22 -1.47,1.37 -3.16,2.06 -5.06,2.06l-13.24 0c-1.42,0 -2.64,-0.32 -3.64,-0.9 -0.95,-0.63 -1.84,-1.42 -2.58,-2.48 -2.26,-2.74 -4.8,-5.43 -7.65,-8.12 -2.85,-2.69 -6.49,-4.96 -10.97,-6.7 -4.43,-1.74 -10.39,-2.63 -17.88,-2.63 -10.55,0 -18.46,2.21 -23.68,6.59 -5.22,4.37 -7.81,9.97 -7.81,16.72 0,4.11 1.11,7.7 3.43,10.81 2.27,3.16 6.7,6.01 13.29,8.54 6.54,2.59 16.29,5.33 29.11,8.23 13.82,2.79 24.79,6.49 32.81,11.08 8.07,4.53 13.77,9.91 17.14,16.14 3.38,6.17 5.12,13.19 5.12,21.04 0,8.97 -2.58,17.14 -7.75,24.47 -5.12,7.39 -12.77,13.24 -22.84,17.56 -10.13,4.32 -22.52,6.49 -37.24,6.49zm150.47 0c-10.5,0 -20.09,-2.11 -28.74,-6.38 -8.7,-4.27 -15.66,-9.97 -20.94,-17.14 -5.22,-7.17 -7.86,-15.24 -7.86,-24.21 0,-14.56 5.91,-26.16 17.67,-34.81 11.76,-8.7 27.22,-14.4 46.25,-17.14l46.89 -6.64 0 -9.07c0,-10.13 -2.85,-17.99 -8.6,-23.74 -5.75,-5.7 -15.14,-8.54 -28.16,-8.54 -9.44,0 -17.09,1.9 -22.94,5.59 -5.8,3.74 -9.92,8.65 -12.4,14.71 -1.26,3.01 -3.48,4.48 -6.54,4.48l-14.19 0c-2.48,0 -4.27,-0.68 -5.38,-2 -1.11,-1.37 -1.63,-3 -1.58,-4.96 0.05,-3.16 1.26,-7.01 3.64,-11.66 2.37,-4.59 6.12,-9.12 11.13,-13.61 5.01,-4.43 11.5,-8.18 19.46,-11.24 7.96,-3 17.61,-4.53 28.95,-4.53 12.77,0 23.47,1.63 32.07,4.96 8.6,3.32 15.4,7.7 20.41,13.19 4.96,5.43 8.55,11.66 10.76,18.56 2.21,6.91 3.27,13.92 3.27,21.1l0 102.64c0,2.16 -0.63,3.9 -2,5.27 -1.32,1.32 -3.06,2 -5.22,2l-14.77 0c-2.16,0 -3.9,-0.68 -5.22,-2 -1.37,-1.37 -2.05,-3.11 -2.05,-5.27l0 -13.71c-2.58,3.85 -6.22,7.65 -10.81,11.29 -4.64,3.64 -10.45,6.7 -17.41,9.18 -7.01,2.48 -15.56,3.69 -25.69,3.69zm6.65 -23.68c8.7,0 16.56,-1.9 23.63,-5.64 7.12,-3.74 12.77,-9.49 16.93,-17.3 4.16,-7.81 6.22,-17.62 6.22,-29.48l0 -8.81 -36.66 5.43c-15.08,2.11 -26.43,5.69 -33.97,10.71 -7.54,5.01 -11.34,11.29 -11.34,18.72 0,5.96 1.74,10.87 5.17,14.71 3.43,3.85 7.86,6.75 13.24,8.7 5.38,1.95 10.97,2.95 16.77,2.95zm129.48 20.52c-2.16,0 -3.9,-0.68 -5.22,-2 -1.37,-1.37 -2,-3.11 -2,-5.27l0 -150c0,-2.16 0.63,-3.9 2,-5.27 1.32,-1.32 3.06,-2 5.22,-2l14.77 0c2.16,0 3.9,0.68 5.22,2 1.37,1.37 2,3.11 2,5.27l0 14.03c5.64,-7.17 12.61,-13.03 20.94,-17.62 8.33,-4.59 19.04,-6.85 32.12,-6.85 13.66,0 25.32,3 34.81,9.02 9.54,6.01 16.82,14.29 21.73,24.95 4.96,10.66 7.44,23 7.44,37.08l0 89.4c0,2.16 -0.68,3.9 -2,5.27 -1.37,1.32 -3.11,2 -5.27,2l-15.66 0c-2.16,0 -3.9,-0.68 -5.28,-2 -1.32,-1.37 -2,-3.11 -2,-5.27l0 -87.66c0,-14.82 -3.58,-26.37 -10.81,-34.71 -7.17,-8.38 -17.67,-12.55 -31.48,-12.55 -13.13,0 -23.68,4.17 -31.65,12.55 -7.96,8.34 -11.97,19.89 -11.97,34.71l0 87.66c0,2.16 -0.63,3.9 -2,5.27 -1.32,1.32 -3.11,2 -5.22,2l-15.66 0zm244.57 3.16c-11.66,0 -21.68,-2.05 -30.11,-6.12 -8.44,-4.11 -15.35,-9.71 -20.73,-16.77 -5.43,-7.12 -9.44,-15.19 -12.13,-24.31 -2.64,-9.13 -4.17,-18.67 -4.64,-28.74 -0.21,-3.48 -0.32,-6.65 -0.32,-9.55 0,-2.9 0.11,-6.07 0.32,-9.55 0.42,-9.86 1.95,-19.36 4.59,-28.43 2.64,-9.07 6.7,-17.19 12.08,-24.31 5.43,-7.07 12.35,-12.71 20.84,-16.88 8.44,-4.17 18.46,-6.22 30.11,-6.22 12.29,0 22.57,2.21 30.85,6.64 8.23,4.43 14.98,9.92 20.25,16.46l0 -72.79c0,-2.16 0.63,-3.9 2,-5.27 1.32,-1.32 3.06,-2 5.22,-2l15.35 0c2.16,0 3.9,0.68 5.27,2 1.32,1.37 2,3.11 2,5.27l0 210.13c0,2.16 -0.68,3.9 -2,5.27 -1.37,1.32 -3.11,2 -5.27,2l-14.45 0c-2.16,0 -3.9,-0.68 -5.22,-2 -1.37,-1.37 -2.06,-3.11 -2.06,-5.27l0 -13.45c-5.22,6.91 -12.03,12.61 -20.36,17.14 -8.39,4.48 -18.93,6.75 -31.59,6.75zm6.49 -25.53c10.5,0 18.99,-2.48 25.37,-7.39 6.43,-4.9 11.18,-11.08 14.29,-18.51 3.06,-7.49 4.75,-15.08 4.96,-22.79 0.21,-3.48 0.37,-7.6 0.37,-12.29 0,-4.69 -0.16,-8.75 -0.37,-12.18 -0.21,-7.49 -1.95,-14.77 -5.17,-21.89 -3.22,-7.12 -8.02,-13.03 -14.45,-17.72 -6.44,-4.69 -14.77,-7.07 -25,-7.07 -10.66,0 -19.2,2.37 -25.53,7.12 -6.33,4.7 -10.87,10.92 -13.61,18.67 -2.74,7.7 -4.32,16.03 -4.75,24.95 -0.26,6.12 -0.26,12.24 0,18.35 0.42,8.92 2,17.25 4.75,24.95 2.74,7.7 7.28,13.92 13.61,18.67 6.33,4.75 14.87,7.12 25.53,7.12z"/>
    <path class="fil4" d="M948.02 691.83c-2.13,0 -3.99,-0.8 -5.59,-2.4 -1.6,-1.6 -2.4,-3.46 -2.4,-5.58 0,-1.33 0.27,-2.79 0.8,-4.39l100.96 -258.98c1.07,-2.66 2.46,-4.66 4.19,-5.98 1.73,-1.33 4.19,-2 7.38,-2l13.57 0c3.19,0 5.66,0.66 7.38,2 1.73,1.33 3.13,3.32 4.19,5.98l100.96 258.98c0.53,1.6 0.8,3.06 0.8,4.39 0,2.13 -0.8,3.99 -2.4,5.58 -1.6,1.6 -3.46,2.4 -5.59,2.4l-7.98 0c-2.66,0 -4.66,-0.73 -5.99,-2.19 -1.33,-1.47 -2.26,-2.73 -2.79,-3.79l-24.74 -63.85 -141.26 0 -24.74 63.85c-0.26,1.07 -1.13,2.33 -2.59,3.79 -1.46,1.46 -3.53,2.19 -6.19,2.19l-7.98 0zm51.08 -93.78l122.11 0 -61.05 -157.22 -61.05 157.22zm299.28 97.77c-18.62,0 -34.45,-3.66 -47.49,-10.98 -13.03,-7.32 -22.95,-17.89 -29.73,-31.72 -6.79,-13.83 -10.44,-30.19 -10.98,-49.08 -0.26,-3.99 -0.4,-9.31 -0.4,-15.96 0,-6.65 0.13,-11.97 0.4,-15.96 0.53,-19.15 4.19,-35.58 10.98,-49.28 6.78,-13.7 16.69,-24.21 29.73,-31.53 13.03,-7.32 28.86,-10.98 47.49,-10.98 14.1,0 26.27,1.93 36.51,5.79 10.24,3.86 18.69,8.91 25.34,15.16 6.65,6.25 11.7,13.1 15.16,20.55 3.46,7.45 5.32,14.77 5.59,21.95 0.26,2.66 -0.53,4.79 -2.4,6.38 -1.86,1.6 -3.99,2.4 -6.38,2.4l-5.59 0c-2.66,0 -4.59,-0.6 -5.79,-1.8 -1.2,-1.19 -2.46,-3.39 -3.79,-6.58 -5.59,-15.16 -13.24,-25.74 -22.95,-31.72 -9.71,-5.98 -21.61,-8.98 -35.72,-8.98 -18.09,0 -33.05,5.52 -44.89,16.56 -11.84,11.04 -18.16,29.06 -18.95,54.07 -0.53,9.31 -0.53,18.62 0,27.93 0.8,25.01 7.12,43.03 18.95,54.07 11.84,11.04 26.8,16.56 44.89,16.56 14.1,0 26.01,-2.99 35.72,-8.98 9.71,-5.99 17.36,-16.56 22.95,-31.72 1.33,-3.19 2.59,-5.39 3.79,-6.58 1.2,-1.2 3.13,-1.8 5.79,-1.8l5.59 0c2.39,0 4.52,0.8 6.38,2.4 1.86,1.6 2.66,3.72 2.4,6.39 -0.26,5.85 -1.46,11.7 -3.59,17.56 -2.13,5.85 -5.39,11.57 -9.77,17.16 -4.39,5.58 -9.78,10.51 -16.16,14.77 -6.38,4.26 -14.03,7.65 -22.94,10.17 -8.91,2.53 -18.95,3.79 -30.13,3.79zm191.14 0c-12.77,0 -24.54,-2.66 -35.32,-7.98 -10.77,-5.32 -19.48,-12.44 -26.14,-21.35 -6.65,-8.91 -9.98,-18.95 -9.98,-30.13 0,-18.09 7.32,-32.59 21.95,-43.49 14.63,-10.91 33.65,-17.96 57.07,-21.15l63.05 -8.78 0 -13.97c0,-14.1 -4.32,-25.21 -12.97,-33.32 -8.64,-8.11 -22.41,-12.17 -41.3,-12.17 -13.83,0 -25.01,2.73 -33.52,8.18 -8.51,5.45 -14.36,12.57 -17.56,21.35 -1.33,3.99 -3.86,5.99 -7.58,5.99l-6.38 0c-3.19,0 -5.45,-0.87 -6.79,-2.59 -1.33,-1.73 -1.99,-3.79 -1.99,-6.19 0,-3.73 1.4,-8.38 4.19,-13.97 2.79,-5.59 7.11,-11.11 12.97,-16.56 5.85,-5.45 13.44,-10.04 22.75,-13.77 9.31,-3.72 20.61,-5.59 33.92,-5.59 15.69,0 28.66,2.13 38.9,6.39 10.24,4.26 18.22,9.78 23.94,16.56 5.72,6.79 9.78,14.3 12.17,22.55 2.4,8.25 3.59,16.36 3.59,24.34l0 132.88c0,2.66 -0.8,4.79 -2.4,6.38 -1.6,1.6 -3.72,2.4 -6.39,2.4l-6.78 0c-2.66,0 -4.79,-0.8 -6.39,-2.4 -1.59,-1.6 -2.39,-3.72 -2.39,-6.38l0 -18.76c-3.19,4.79 -7.71,9.58 -13.57,14.37 -5.85,4.79 -13.37,8.84 -22.55,12.17 -9.18,3.32 -20.69,4.99 -34.52,4.99zm3.99 -23.15c12.24,0 23.41,-2.66 33.52,-7.98 10.11,-5.32 18.16,-13.5 24.14,-24.54 5.98,-11.04 8.98,-24.94 8.98,-41.7l0 -13.57 -51.48 7.19c-21.82,2.92 -38.31,7.98 -49.48,15.16 -11.18,7.18 -16.76,16.23 -16.76,27.13 0,8.78 2.53,15.96 7.58,21.55 5.05,5.58 11.5,9.78 19.35,12.57 7.85,2.79 15.9,4.19 24.14,4.19zm229.05 23.15c-15.43,0 -28.53,-2.79 -39.31,-8.38 -10.77,-5.58 -19.48,-13.03 -26.14,-22.35 -6.65,-9.31 -11.51,-19.69 -14.57,-31.13 -3.06,-11.44 -4.85,-23.01 -5.39,-34.72 -0.26,-3.99 -0.4,-7.71 -0.4,-11.17 0,-3.46 0.13,-7.18 0.4,-11.17 0.53,-11.71 2.33,-23.28 5.39,-34.72 3.06,-11.44 7.92,-21.82 14.57,-31.13 6.65,-9.31 15.36,-16.76 26.14,-22.35 10.77,-5.59 23.88,-8.38 39.31,-8.38 16.49,0 30.13,3.06 40.9,9.18 10.77,6.12 19.49,13.57 26.14,22.35l0 -94.58c0,-2.66 0.8,-4.79 2.4,-6.38 1.6,-1.6 3.73,-2.4 6.39,-2.4l6.78 0c2.66,0 4.79,0.8 6.39,2.4 1.6,1.6 2.4,3.72 2.4,6.38l0 265.77c0,2.66 -0.8,4.79 -2.4,6.38 -1.6,1.6 -3.73,2.4 -6.39,2.4l-6.78 0c-2.66,0 -4.79,-0.8 -6.39,-2.4 -1.6,-1.6 -2.4,-3.72 -2.4,-6.38l0 -18.76c-6.65,9.05 -15.36,16.56 -26.14,22.55 -10.77,5.98 -24.41,8.98 -40.9,8.98zm2.39 -23.15c15.16,0 27.4,-3.59 36.72,-10.77 9.31,-7.18 16.23,-16.16 20.75,-26.93 4.52,-10.77 6.92,-21.61 7.18,-32.52 0.27,-3.99 0.4,-9.18 0.4,-15.56 0,-6.38 -0.13,-11.57 -0.4,-15.56 -0.26,-10.64 -2.73,-21.15 -7.38,-31.52 -4.66,-10.37 -11.64,-19.02 -20.95,-25.94 -9.31,-6.92 -21.42,-10.37 -36.32,-10.37 -15.43,0 -27.73,3.46 -36.91,10.37 -9.18,6.92 -15.76,15.96 -19.75,27.14 -3.99,11.17 -6.25,23.14 -6.79,35.91 -0.26,7.45 -0.26,14.9 0,22.35 0.53,12.77 2.79,24.74 6.79,35.91 3.99,11.18 10.58,20.22 19.75,27.14 9.18,6.92 21.48,10.37 36.91,10.37zm231.05 23.15c-25.81,0 -46.29,-8.45 -61.46,-25.34 -15.16,-16.89 -23.81,-39.04 -25.94,-66.44 -0.26,-3.99 -0.4,-9.31 -0.4,-15.96 0,-6.65 0.13,-11.97 0.4,-15.96 1.33,-18.09 5.59,-34.05 12.77,-47.88 7.19,-13.83 17.09,-24.61 29.73,-32.32 12.64,-7.72 27.6,-11.58 44.9,-11.58 18.62,0 34.45,4.13 47.49,12.37 13.03,8.25 23.08,20.09 30.13,35.52 7.05,15.43 10.58,33.78 10.58,55.07l0 5.99c0,2.66 -0.87,4.79 -2.6,6.38 -1.73,1.6 -3.92,2.4 -6.58,2.4l-142.06 0c0,0 0,0.53 0,1.6 0,1.06 0,1.86 0,2.4 0.53,11.97 3.33,23.35 8.38,34.12 5.05,10.77 12.24,19.55 21.55,26.34 9.31,6.78 20.35,10.17 33.12,10.17 11.44,0 20.95,-1.73 28.53,-5.19 7.58,-3.46 13.63,-7.25 18.16,-11.37 4.52,-4.12 7.45,-7.25 8.78,-9.37 2.4,-3.46 4.26,-5.52 5.59,-6.19 1.33,-0.66 3.46,-1 6.38,-1l6.39 0c2.4,0 4.45,0.73 6.19,2.19 1.73,1.47 2.46,3.4 2.19,5.79 -0.26,3.73 -2.33,8.32 -6.19,13.77 -3.86,5.45 -9.31,10.84 -16.36,16.16 -7.05,5.32 -15.63,9.71 -25.74,13.17 -10.11,3.46 -21.42,5.19 -33.92,5.19zm-63.05 -120.11l126.9 0 0 -1.6c0,-13.3 -2.53,-25.27 -7.58,-35.91 -5.05,-10.64 -12.37,-19.09 -21.95,-25.34 -9.58,-6.25 -21.02,-9.37 -34.32,-9.37 -13.3,0 -24.68,3.13 -34.12,9.37 -9.45,6.25 -16.63,14.7 -21.55,25.34 -4.92,10.64 -7.38,22.61 -7.38,35.91l0 1.6zm212.69 116.12c-2.66,0 -4.79,-0.8 -6.39,-2.4 -1.6,-1.6 -2.4,-3.72 -2.4,-6.38l0 -189.95c0,-2.66 0.8,-4.79 2.4,-6.38 1.6,-1.6 3.73,-2.4 6.39,-2.4l6.78 0c2.66,0 4.79,0.8 6.39,2.4 1.6,1.6 2.4,3.72 2.4,6.38l0 13.97c6.65,-8.51 14.56,-15.1 23.74,-19.75 9.18,-4.66 20.29,-6.98 33.32,-6.98 29.8,0 51.08,12.5 63.85,37.51 6.12,-11.44 15.1,-20.55 26.94,-27.34 11.84,-6.78 25.47,-10.18 40.9,-10.18 14.1,0 26.8,3.26 38.11,9.78 11.31,6.52 20.22,16.16 26.74,28.93 6.52,12.77 9.78,28.73 9.78,47.89l0 116.12c0,2.66 -0.8,4.79 -2.4,6.38 -1.6,1.6 -3.72,2.4 -6.38,2.4l-6.79 0c-2.66,0 -4.79,-0.8 -6.38,-2.4 -1.6,-1.6 -2.4,-3.72 -2.4,-6.38l0 -112.13c0,-17.56 -2.53,-31.19 -7.58,-40.9 -5.05,-9.71 -11.71,-16.56 -19.95,-20.55 -8.25,-3.99 -17.16,-5.98 -26.74,-5.98 -7.98,0 -16.09,1.99 -24.34,5.98 -8.25,3.99 -15.1,10.84 -20.55,20.55 -5.45,9.71 -8.18,23.35 -8.18,40.9l0 112.13c0,2.66 -0.8,4.79 -2.39,6.38 -1.6,1.6 -3.73,2.4 -6.39,2.4l-6.78 0c-2.66,0 -4.79,-0.8 -6.39,-2.4 -1.6,-1.6 -2.4,-3.72 -2.4,-6.38l0 -112.13c0,-17.56 -2.66,-31.19 -7.98,-40.9 -5.32,-9.71 -12.11,-16.56 -20.35,-20.55 -8.24,-3.99 -16.89,-5.98 -25.94,-5.98 -7.98,0 -16.09,1.99 -24.34,5.98 -8.24,3.99 -15.1,10.84 -20.55,20.55 -5.45,9.71 -8.18,23.21 -8.18,40.5l0 112.53c0,2.66 -0.8,4.79 -2.4,6.38 -1.6,1.6 -3.73,2.4 -6.39,2.4l-6.78 0zm370.71 75.82c-2.13,0 -3.99,-0.8 -5.59,-2.4 -1.6,-1.6 -2.4,-3.46 -2.4,-5.58 0,-1.07 0.2,-2.2 0.6,-3.4 0.4,-1.19 1,-2.72 1.79,-4.59l30.73 -71.83 -76.22 -179.57c-1.6,-3.99 -2.4,-6.65 -2.4,-7.98 0,-2.13 0.8,-3.99 2.4,-5.58 1.6,-1.6 3.46,-2.4 5.58,-2.4l8.38 0c2.66,0 4.72,0.6 6.19,1.79 1.46,1.2 2.46,2.6 2.99,4.19l67.04 158.02 68.63 -158.02c0.8,-1.6 1.87,-3 3.19,-4.19 1.33,-1.19 3.33,-1.79 5.99,-1.79l7.98 0c2.13,0 3.99,0.8 5.59,2.4 1.6,1.6 2.39,3.46 2.39,5.58 0,1.33 -0.79,3.99 -2.39,7.98l-113.33 261.38c-0.8,1.59 -1.86,2.99 -3.19,4.19 -1.33,1.2 -3.33,1.79 -5.99,1.79l-7.98 0z"/>
   </g>
  </g>
 </g>
</svg>
